<?xml version="1.0" standalone="no"?>
<!DOCTYPE svg PUBLIC "-//W3C//DTD SVG 20010904//EN"
 "http://www.w3.org/TR/2001/REC-SVG-20010904/DTD/svg10.dtd">
<svg version="1.0" xmlns="http://www.w3.org/2000/svg"
 width="500.000000pt" height="500.000000pt" viewBox="0 0 500.000000 500.000000"
 preserveAspectRatio="xMidYMid meet">

<g transform="translate(0.000000,500.000000) scale(0.100000,-0.100000)"
fill="#000000" stroke="none">
<path d="M1802 3101 c-81 -28 -90 -44 -21 -36 44 5 65 3 93 -10 44 -21 100
-82 128 -139 l21 -44 -148 -339 c-155 -355 -183 -403 -239 -403 -14 0 -28 -4
-31 -10 -4 -6 45 -10 139 -10 91 0 146 4 146 10 0 6 -8 10 -18 10 -51 0 -53
46 -8 155 l34 80 158 0 158 0 31 -80 c51 -131 104 -221 171 -294 112 -120 210
-167 379 -178 158 -10 284 23 358 95 54 52 70 87 69 153 -1 99 -57 175 -145
201 -23 6 -44 13 -46 14 -2 2 8 17 22 33 55 65 59 155 11 218 -35 46 -111 82
-197 93 -97 13 -344 13 -352 0 -3 -5 3 -10 15 -10 11 0 32 -11 45 -25 l25 -24
0 -258 c0 -224 -2 -255 -14 -237 -35 50 -106 208 -224 497 -139 341 -188 430
-274 497 -27 22 -66 44 -86 50 -56 15 -141 11 -200 -9z m327 -504 l59 -157
-129 0 c-71 0 -129 1 -129 3 0 1 16 41 36 87 19 47 49 118 66 158 17 40 32 71
34 70 2 -2 30 -75 63 -161z m716 -43 c42 -20 65 -67 65 -134 0 -68 -24 -116
-68 -139 -39 -20 -36 -23 38 -35 90 -15 140 -77 140 -174 0 -113 -56 -182
-155 -190 -29 -2 -62 1 -74 7 -21 12 -21 14 -21 346 0 334 0 335 21 335 12 0
36 -7 54 -16z"/>
</g>
</svg>
