<?xml version="1.0" standalone="no"?>
<!DOCTYPE svg PUBLIC "-//W3C//DTD SVG 20010904//EN"
 "http://www.w3.org/TR/2001/REC-SVG-20010904/DTD/svg10.dtd">
<svg version="1.0" xmlns="http://www.w3.org/2000/svg"
 width="150.000000pt" height="200.000000pt" viewBox="0 0 150.000000 200.000000"
 preserveAspectRatio="xMidYMid meet">

<g transform="translate(0.000000,200.000000) scale(0.100000,-0.100000)"
fill="#000000" stroke="none">
<path d="M479 1550 c-41 -11 -70 -30 -63 -41 4 -6 15 -4 30 5 30 21 93 20 122
0 28 -19 42 -10 20 12 -20 20 -76 32 -109 24z"/>
<path d="M474 1510 c-23 -9 -39 -28 -31 -36 2 -3 18 3 34 12 27 16 32 16 61 1
25 -12 32 -13 32 -2 0 7 -14 18 -31 24 -37 13 -37 13 -65 1z"/>
<path d="M477 1473 c-14 -14 -6 -18 32 -18 31 0 37 2 29 12 -11 14 -50 18 -61
6z"/>
<path d="M500 1430 c0 -5 5 -10 10 -10 6 0 10 5 10 10 0 6 -4 10 -10 10 -5 0
-10 -4 -10 -10z"/>
<path d="M567 1332 c-13 -14 -17 -38 -17 -95 l0 -76 -67 -3 -68 -3 -3 -92 -3
-93 71 0 70 0 0 -140 c0 -190 -12 -180 213 -180 140 0 177 3 195 16 21 15 22
20 22 213 l0 197 35 17 c69 33 96 127 55 194 -35 58 -57 63 -283 63 -185 0
-205 -2 -220 -18z m274 -38 c-12 -15 -21 -33 -21 -40 0 -11 -25 -14 -120 -14
l-120 0 0 33 c0 19 3 37 7 40 3 4 67 7 140 7 l134 0 -20 -26z m190 -3 c24 -24
29 -38 29 -76 0 -38 -5 -52 -29 -76 -42 -41 -107 -41 -153 0 -28 25 -33 36
-33 76 0 40 5 51 33 76 46 41 111 41 153 0z m-209 -118 c10 -37 59 -82 99 -90
l29 -5 0 -144 0 -144 -185 0 -185 0 0 90 0 90 90 0 91 0 -3 93 -3 92 -87 3
c-86 3 -88 3 -88 28 l0 25 117 -3 117 -3 8 -32z m-92 -53 c0 -6 -55 -10 -145
-10 -90 0 -145 4 -145 10 0 6 55 10 145 10 90 0 145 -4 145 -10z m0 -80 l0
-40 -145 0 -145 0 0 40 0 40 145 0 145 0 0 -40z m218 -317 l-3 -38 -180 0
-180 0 -3 38 -3 37 186 0 186 0 -3 -37z"/>
<path d="M707 1294 c-14 -14 6 -24 49 -24 32 0 44 4 42 13 -5 13 -79 22 -91
11z"/>
<path d="M966 1231 c-24 -25 -31 -28 -47 -18 -10 6 -21 8 -25 4 -9 -8 25 -47
41 -47 12 0 85 71 85 83 0 16 -28 5 -54 -22z"/>
<path d="M470 1034 c0 -12 10 -14 47 -12 66 4 70 28 4 28 -39 0 -51 -4 -51
-16z"/>
<path d="M602 1038 c3 -7 25 -14 51 -16 37 -2 47 0 47 12 0 12 -12 16 -51 16
-36 0 -49 -4 -47 -12z"/>
<path d="M727 734 c-16 -17 -4 -24 39 -24 32 0 44 4 42 13 -5 13 -69 22 -81
11z"/>
</g>
</svg>
