<?xml version="1.0" standalone="no"?>
<!DOCTYPE svg PUBLIC "-//W3C//DTD SVG 20010904//EN"
 "http://www.w3.org/TR/2001/REC-SVG-20010904/DTD/svg10.dtd">
<svg version="1.0" xmlns="http://www.w3.org/2000/svg"
 width="150.000000pt" height="200.000000pt" viewBox="0 0 150.000000 200.000000"
 preserveAspectRatio="xMidYMid meet">

<g transform="translate(0.000000,200.000000) scale(0.100000,-0.100000)"
fill="#000000" stroke="none">
<path d="M450 1040 c0 -273 4 -295 55 -318 18 -8 98 -12 251 -12 l226 0 34 34
c19 19 34 43 34 55 0 19 -7 20 -92 23 l-93 3 -3 233 -2 232 -205 0 -205 0 0
-250z m390 -7 c0 -220 2 -241 20 -270 l20 -33 -181 0 c-178 0 -180 0 -204 25
l-25 24 0 246 0 245 185 0 185 0 0 -237z m179 -255 c-27 -51 -78 -62 -123 -27
-48 37 -35 49 54 49 81 0 81 0 69 -22z"/>
<path d="M546 1195 c-18 -27 -14 -41 17 -64 14 -10 16 -16 7 -25 -8 -8 -13 -7
-20 4 -5 8 -12 12 -15 8 -4 -3 1 -18 11 -32 17 -26 17 -26 31 -6 8 11 13 30
12 43 -2 12 0 27 3 33 4 5 -1 23 -11 38 l-18 27 -17 -26z m32 -34 c3 -8 -1
-12 -9 -9 -7 2 -15 10 -17 17 -3 8 1 12 9 9 7 -2 15 -10 17 -17z"/>
<path d="M650 1190 c0 -6 28 -10 65 -10 37 0 65 4 65 10 0 6 -28 10 -65 10
-37 0 -65 -4 -65 -10z"/>
<path d="M650 1120 c0 -6 28 -10 65 -10 37 0 65 4 65 10 0 6 -28 10 -65 10
-37 0 -65 -4 -65 -10z"/>
<path d="M650 1060 c0 -6 28 -10 65 -10 37 0 65 4 65 10 0 6 -28 10 -65 10
-37 0 -65 -4 -65 -10z"/>
<path d="M530 1000 c0 -6 48 -10 125 -10 77 0 125 4 125 10 0 6 -48 10 -125
10 -77 0 -125 -4 -125 -10z"/>
<path d="M530 930 c0 -6 48 -10 125 -10 77 0 125 4 125 10 0 6 -48 10 -125 10
-77 0 -125 -4 -125 -10z"/>
<path d="M537 864 c-18 -18 15 -24 124 -24 99 0 119 3 119 15 0 12 -20 15
-118 15 -65 0 -122 -3 -125 -6z"/>
</g>
</svg>
