<?xml version="1.0" standalone="no"?>
<!DOCTYPE svg PUBLIC "-//W3C//DTD SVG 20010904//EN"
 "http://www.w3.org/TR/2001/REC-SVG-20010904/DTD/svg10.dtd">
<svg version="1.0" xmlns="http://www.w3.org/2000/svg"
 width="150.000000pt" height="200.000000pt" viewBox="0 0 150.000000 200.000000"
 preserveAspectRatio="xMidYMid meet">

<g transform="translate(0.000000,200.000000) scale(0.100000,-0.100000)"
fill="#000000" stroke="none">
<path d="M612 1278 c-7 -7 -12 -39 -12 -72 l-1 -61 -61 -45 c-33 -25 -81 -55
-107 -68 -25 -12 -36 -20 -24 -17 20 6 21 4 10 -30 -7 -24 -7 -39 0 -46 6 -6
10 0 10 21 0 49 35 74 152 110 57 18 110 34 118 37 8 3 13 -2 13 -17 0 -36
-18 -58 -57 -71 -51 -16 -59 -24 -67 -61 -3 -17 -14 -40 -23 -50 -9 -10 -11
-18 -5 -18 13 0 42 51 42 75 0 8 5 15 10 15 6 0 10 -3 10 -8 0 -4 19 -6 41 -4
28 3 44 0 50 -9 6 -10 9 -11 9 -1 0 9 30 12 117 12 l117 0 -21 -21 c-20 -21
-24 -21 -88 -8 -63 12 -71 12 -136 -11 -39 -13 -72 -27 -75 -31 -3 -5 14 -2
37 6 52 19 49 19 50 -7 1 -16 3 -18 6 -6 2 9 17 20 33 23 28 6 137 -9 149 -21
3 -3 -5 -15 -19 -26 -19 -15 -33 -18 -66 -13 -38 5 -146 -28 -423 -130 -8 -3
-12 -8 -9 -10 2 -3 91 27 197 65 169 60 198 68 241 63 43 -5 51 -3 74 20 30
30 33 47 9 47 -12 0 -7 7 15 20 17 11 32 24 32 29 0 5 32 11 71 13 47 2 73 8
79 18 15 23 13 273 -2 288 -17 17 -479 17 -496 0z m488 -143 l0 -145 -242 1
c-224 0 -240 2 -203 15 22 8 45 21 52 30 10 14 12 13 15 -3 3 -10 5 17 6 60
l2 77 -40 0 c-39 0 -40 -1 -40 -35 0 -28 -4 -35 -20 -35 -18 0 -20 7 -20 83 0
46 3 87 7 90 3 4 114 7 245 7 l238 0 0 -145z m-413 -7 c-3 -7 -5 -2 -5 12 0
14 2 19 5 13 2 -7 2 -19 0 -25z m-94 -38 c-10 -9 -75 -31 -79 -27 -2 2 16 18
39 36 35 27 43 29 45 16 2 -10 0 -21 -5 -25z m215 -157 c-10 -2 -26 -2 -35 0
-10 3 -2 5 17 5 19 0 27 -2 18 -5z m49 -9 c-3 -3 -12 -4 -19 -1 -8 3 -5 6 6 6
11 1 17 -2 13 -5z"/>
<path d="M650 1240 c0 -18 6 -20 66 -20 57 0 65 2 62 18 -3 14 -16 18 -66 20
-57 3 -62 1 -62 -18z m88 -7 c-16 -2 -40 -2 -55 0 -16 2 -3 4 27 4 30 0 43 -2
28 -4z"/>
<path d="M1006 1235 c-11 -28 -7 -44 14 -55 31 -16 62 4 58 38 -2 22 -9 28
-34 30 -22 2 -33 -2 -38 -13z m59 -20 c0 -22 -31 -33 -47 -17 -17 17 -1 44 24
40 15 -2 23 -10 23 -23z"/>
<path d="M678 1203 c17 -2 47 -2 65 0 17 2 3 4 -33 4 -36 0 -50 -2 -32 -4z"/>
<path d="M1065 1080 c0 -21 3 -36 7 -34 5 3 8 18 8 34 0 16 -3 31 -8 34 -4 2
-7 -13 -7 -34z"/>
<path d="M1043 1078 c0 -30 1 -30 10 -10 7 15 7 26 0 33 -6 6 -10 -1 -10 -23z"/>
<path d="M792 1045 c0 -16 2 -22 5 -12 2 9 2 23 0 30 -3 6 -5 -1 -5 -18z"/>
<path d="M812 1045 c0 -16 2 -22 5 -12 2 9 2 23 0 30 -3 6 -5 -1 -5 -18z"/>
<path d="M835 1057 c-4 -10 -5 -21 -1 -24 10 -10 18 4 13 24 -4 17 -4 17 -12
0z"/>
<path d="M862 1045 c0 -16 2 -22 5 -12 2 9 2 23 0 30 -3 6 -5 -1 -5 -18z"/>
<path d="M903 1054 c-3 -8 -1 -20 6 -27 8 -8 11 -4 11 16 0 30 -7 35 -17 11z"/>
<path d="M932 1045 c0 -16 2 -22 5 -12 2 9 2 23 0 30 -3 6 -5 -1 -5 -18z"/>
<path d="M952 1045 c0 -16 2 -22 5 -12 2 9 2 23 0 30 -3 6 -5 -1 -5 -18z"/>
<path d="M982 1045 c0 -16 2 -22 5 -12 2 9 2 23 0 30 -3 6 -5 -1 -5 -18z"/>
<path d="M760 1045 c0 -8 5 -15 10 -15 6 0 10 7 10 15 0 8 -4 15 -10 15 -5 0
-10 -7 -10 -15z"/>
</g>
</svg>
