<?xml version="1.0" standalone="no"?>
<!DOCTYPE svg PUBLIC "-//W3C//DTD SVG 20010904//EN"
 "http://www.w3.org/TR/2001/REC-SVG-20010904/DTD/svg10.dtd">
<svg version="1.0" xmlns="http://www.w3.org/2000/svg"
 width="150.000000pt" height="200.000000pt" viewBox="0 0 150.000000 200.000000"
 preserveAspectRatio="xMidYMid meet">

<g transform="translate(0.000000,200.000000) scale(0.100000,-0.100000)"
fill="#000000" stroke="none">
<path d="M644 1239 c-65 -39 -120 -72 -122 -74 -2 -1 18 -37 43 -78 35 -58 44
-81 37 -94 -5 -10 -15 -41 -22 -70 -7 -33 -33 -83 -71 -139 -33 -48 -58 -89
-56 -91 2 -2 28 34 58 79 46 70 54 78 57 58 6 -40 18 -44 14 -5 -5 43 1 50
102 132 59 47 81 61 87 51 15 -23 10 -37 -26 -77 -30 -33 -35 -45 -35 -87 1
-48 1 -48 15 -24 13 23 21 15 16 -14 -1 -4 5 -19 14 -33 15 -22 15 -26 0 -50
-9 -13 -15 -27 -12 -29 3 -3 14 10 26 29 12 19 31 37 43 40 12 4 19 9 16 12
-3 4 -16 2 -27 -5 -17 -9 -21 -8 -21 5 0 13 20 15 135 15 l135 0 0 245 0 245
-127 1 c-75 0 -120 4 -108 8 11 5 23 7 28 4 4 -2 7 1 7 6 0 14 -16 14 -41 0
-14 -7 -24 -7 -33 0 -10 8 -44 -7 -132 -60z m134 46 c-6 -6 -118 -54 -118 -50
0 8 105 63 113 58 4 -3 7 -6 5 -8z m262 -250 l0 -235 -136 0 -136 0 6 83 c3
45 6 91 5 102 0 11 -2 80 -5 153 l-5 132 135 0 136 0 0 -235z m-280 153 l-1
-73 -20 35 c-11 19 -18 27 -15 17 3 -10 6 -22 6 -27 0 -5 7 -16 16 -25 15 -14
15 -19 1 -47 -8 -17 -13 -37 -10 -44 2 -6 0 -15 -6 -19 -16 -9 -75 125 -61
139 5 5 10 18 10 27 0 10 15 23 38 32 20 9 31 16 24 16 -25 1 -72 -30 -72 -47
0 -10 -5 -23 -11 -29 -7 -7 -1 -30 20 -78 21 -46 28 -72 21 -79 -5 -5 -12 -8
-14 -5 -6 6 -84 181 -88 197 -2 11 128 79 155 81 4 1 7 -32 7 -71z m-160 -65
c0 -12 6 -26 13 -30 17 -11 69 -122 62 -134 -4 -5 -10 -7 -14 -4 -10 6 -121
191 -121 201 0 4 8 13 18 20 14 11 19 9 29 -9 7 -12 12 -32 13 -44z m157 -85
c-3 -8 -6 -5 -6 6 -1 11 2 17 5 13 3 -3 4 -12 1 -19z m-123 -67 c16 -31 17
-30 -37 -70 -15 -12 -17 -12 -13 0 3 8 10 33 16 57 6 23 13 42 15 42 3 0 11
-13 19 -29z m124 -107 l2 -39 -19 35 c-19 36 -18 54 2 47 7 -2 13 -21 15 -43z"/>
<path d="M835 1220 c-3 -11 -13 -20 -21 -20 -12 0 -14 -28 -14 -161 0 -160 0
-162 26 -185 37 -35 123 -34 159 1 25 26 25 28 25 185 0 140 -2 160 -16 160
-9 0 -18 9 -21 20 -5 17 -14 20 -68 20 -55 0 -65 -3 -70 -20z m140 -15 c25
-25 25 -29 25 -173 0 -142 -1 -148 -24 -169 -33 -32 -110 -32 -143 -1 -22 21
-23 28 -23 169 0 140 1 150 23 173 33 35 106 36 142 1z"/>
<path d="M923 1170 c0 -25 2 -35 4 -22 2 12 2 32 0 45 -2 12 -4 2 -4 -23z"/>
<path d="M883 1165 c0 -22 2 -30 4 -17 2 12 2 30 0 40 -3 9 -5 -1 -4 -23z"/>
<path d="M873 1100 c-46 -19 -57 -83 -20 -118 33 -31 80 -29 106 4 34 43 26
86 -20 109 -32 17 -35 17 -66 5z m72 -25 c29 -28 31 -51 9 -83 -10 -14 -25
-22 -45 -22 l-29 0 20 20 c11 11 27 20 35 20 21 0 31 30 14 41 -8 5 -18 7 -24
5 -10 -3 -34 22 -35 37 0 16 32 6 55 -18z m-47 -43 c3 -39 1 -42 -21 -42 -35
0 -51 52 -25 78 24 24 43 9 46 -36z m50 0 c2 -7 -6 -12 -17 -12 -21 0 -27 11
-14 24 9 9 26 2 31 -12z"/>
<path d="M883 900 c0 -25 2 -35 4 -22 2 12 2 32 0 45 -2 12 -4 2 -4 -23z"/>
<path d="M923 900 c0 -25 2 -35 4 -22 2 12 2 32 0 45 -2 12 -4 2 -4 -23z"/>
</g>
</svg>
