<?xml version="1.0" standalone="no"?>
<!DOCTYPE svg PUBLIC "-//W3C//DTD SVG 20010904//EN"
 "http://www.w3.org/TR/2001/REC-SVG-20010904/DTD/svg10.dtd">
<svg version="1.0" xmlns="http://www.w3.org/2000/svg"
 width="150.000000pt" height="200.000000pt" viewBox="0 0 150.000000 200.000000"
 preserveAspectRatio="xMidYMid meet">

<g transform="translate(0.000000,200.000000) scale(0.100000,-0.100000)"
fill="#000000" stroke="none">
<path d="M491 1386 c-20 -24 -10 -70 17 -74 27 -4 27 -6 2 -40 -20 -27 -21
-39 -18 -306 3 -245 5 -279 20 -290 9 -6 18 -25 20 -41 l3 -30 213 -3 212 -2
0 28 c0 15 9 35 20 45 19 16 20 29 20 306 0 287 0 289 -22 303 l-22 15 29 14
c35 16 43 49 20 73 -14 14 -48 16 -259 16 -200 0 -246 -3 -255 -14z m504 -36
l0 -25 -245 0 -245 0 -3 28 -3 27 248 -2 248 -3 0 -25z m-55 -385 l0 -345
-195 0 -195 0 0 345 0 345 195 0 195 0 0 -345z m-410 14 c0 -191 -3 -288 -10
-284 -6 4 -10 106 -10 275 0 240 3 300 16 300 2 0 4 -131 4 -291z m450 -4 c0
-178 -4 -286 -10 -290 -7 -4 -10 95 -10 290 0 195 3 294 10 290 6 -4 10 -112
10 -290z"/>
<path d="M570 1070 l0 -220 180 0 180 0 -2 218 -3 217 -177 3 -178 2 0 -220z
m40 33 c0 -93 -5 -175 -10 -183 -6 -10 -10 46 -10 168 0 115 4 182 10 182 6 0
10 -62 10 -167z m260 7 l0 -160 -120 0 -120 0 0 160 0 160 120 0 120 0 0 -160z
m40 -27 c-1 -168 -2 -185 -15 -163 -21 38 -21 350 0 350 13 0 15 -27 15 -187z
m-25 -183 c8 -16 15 -31 15 -35 0 -3 -67 -5 -150 -5 -88 0 -150 4 -150 10 0 5
5 21 12 35 11 25 12 25 134 25 l123 0 16 -30z"/>
<path d="M726 1170 c-14 -25 -15 -34 -6 -45 7 -8 19 -15 26 -15 8 0 14 -7 14
-15 0 -18 -27 -20 -33 -2 -2 6 -8 9 -12 5 -5 -5 -1 -16 8 -26 10 -10 17 -24
17 -30 0 -22 15 -12 29 18 15 36 9 60 -19 67 -11 3 -20 9 -20 14 0 15 21 21
35 9 12 -10 15 -9 15 4 0 9 -4 16 -10 16 -5 0 -10 7 -10 15 0 24 -14 17 -34
-15z"/>
<path d="M770 910 c0 -5 20 -10 45 -10 25 0 45 5 45 10 0 6 -20 10 -45 10 -25
0 -45 -4 -45 -10z"/>
<path d="M570 764 c0 -34 4 -53 10 -49 6 3 10 28 10 56 0 27 -4 49 -10 49 -5
0 -10 -25 -10 -56z"/>
<path d="M648 799 c-14 -8 -18 -23 -18 -67 0 -32 5 -63 12 -70 13 -13 173 -17
202 -6 12 5 16 21 16 74 0 53 -4 69 -16 74 -26 10 -178 6 -196 -5z m192 -19
c0 -6 -39 -10 -96 -10 -61 0 -93 4 -89 10 3 6 46 10 96 10 53 0 89 -4 89 -10z
m-42 -37 c-26 -2 -71 -2 -100 0 -29 2 -8 3 47 3 55 0 79 -1 53 -3z m42 -48 c0
-25 0 -25 -95 -25 -95 0 -95 0 -95 25 0 25 0 25 95 25 95 0 95 0 95 -25z"/>
<path d="M775 690 c3 -5 12 -10 20 -10 8 0 17 5 20 10 4 6 -5 10 -20 10 -15 0
-24 -4 -20 -10z"/>
<path d="M570 670 c0 -16 5 -30 10 -30 6 0 10 14 10 30 0 17 -4 30 -10 30 -5
0 -10 -13 -10 -30z"/>
</g>
</svg>
