<?xml version="1.0" standalone="no"?>
<!DOCTYPE svg PUBLIC "-//W3C//DTD SVG 20010904//EN"
 "http://www.w3.org/TR/2001/REC-SVG-20010904/DTD/svg10.dtd">
<svg version="1.0" xmlns="http://www.w3.org/2000/svg"
 width="150.000000pt" height="200.000000pt" viewBox="0 0 150.000000 200.000000"
 preserveAspectRatio="xMidYMid meet">

<g transform="translate(0.000000,200.000000) scale(0.100000,-0.100000)"
fill="#000000" stroke="none">
<path d="M620 1250 l0 -49 -82 -3 -83 -3 0 -205 0 -205 110 0 110 0 3 173 2
172 145 0 145 0 0 85 0 85 -175 0 -175 0 0 -50z m340 -35 l0 -75 -142 2 -143
2 124 3 c71 2 130 8 138 15 16 13 17 90 1 106 -17 17 -272 17 -286 0 -6 -7
-12 -26 -15 -43 -3 -22 -4 -17 -6 18 l-1 47 165 0 165 0 0 -75z m-33 43 c17
-14 17 -73 0 -86 -7 -6 -63 -10 -130 -10 -96 0 -117 2 -117 14 0 8 -7 17 -15
20 -18 7 -20 60 -2 67 25 10 252 5 264 -5z m-363 -98 c59 0 78 3 82 15 17 42
24 -14 24 -181 l0 -184 -105 0 -105 0 0 193 c1 162 3 189 14 175 11 -14 29
-18 90 -18z m76 20 c0 -6 -32 -10 -75 -10 -43 0 -75 4 -75 10 0 6 32 10 75 10
43 0 75 -4 75 -10z m-22 -387 c-26 -2 -71 -2 -100 0 -29 2 -8 3 47 3 55 0 79
-1 53 -3z"/>
<path d="M749 1239 c-12 -24 2 -69 21 -69 7 0 4 7 -4 16 -9 8 -16 22 -16 29 0
7 7 21 16 29 8 9 11 16 5 16 -6 0 -15 -10 -22 -21z"/>
<path d="M823 1242 c21 -23 21 -31 0 -54 -9 -10 -11 -18 -5 -18 6 0 16 10 23
21 13 24 -2 69 -22 69 -8 0 -6 -7 4 -18z"/>
<path d="M785 1238 c-7 -19 0 -53 11 -51 12 4 14 52 2 59 -4 3 -10 -1 -13 -8z"/>
<path d="M530 1089 c-82 -32 -79 -151 4 -179 62 -20 126 26 126 90 0 37 -28
77 -61 89 -37 13 -36 13 -69 0z m98 -35 c47 -53 9 -138 -61 -138 -99 0 -120
132 -27 167 26 10 64 -3 88 -29z"/>
<path d="M546 1054 c-20 -20 -20 -43 -1 -50 8 -4 15 -17 15 -31 0 -22 -2 -24
-15 -13 -13 11 -14 10 -9 -3 9 -24 30 -28 48 -8 16 18 13 51 -5 51 -5 0 -9 12
-9 26 0 24 2 25 18 13 14 -11 13 -10 -2 9 -23 26 -21 26 -40 6z m14 -26 c0
-16 -3 -19 -11 -11 -6 6 -8 16 -5 22 11 17 16 13 16 -11z m22 -70 c-9 -9 -12
-7 -12 12 0 19 3 21 12 12 9 -9 9 -15 0 -24z"/>
<path d="M770 1074 c0 -34 -4 -43 -25 -52 -25 -12 -25 -12 -25 -155 0 -98 4
-147 12 -155 13 -13 153 -17 182 -6 10 4 16 18 16 38 0 18 6 44 13 59 10 22
19 27 47 27 58 0 61 6 58 111 l-3 94 -55 -1 c-30 -1 -64 -3 -75 -5 -17 -3 -20
2 -23 42 l-3 46 -59 -1 -60 -1 0 -41z m98 27 c7 0 12 -15 12 -34 l0 -33 -50 0
c-49 1 -50 1 -50 33 0 39 9 42 88 34z m170 -163 l3 -88 -46 0 -45 0 0 55 c0
30 -5 64 -12 74 -21 34 -3 52 49 49 l48 -3 3 -87z m-118 -57 c0 -108 -3 -130
-16 -135 -28 -11 -150 -6 -162 6 -13 13 -18 239 -5 251 3 4 46 7 95 7 l88 0 0
-129z m17 -44 c-2 -23 -3 -1 -3 48 0 50 1 68 3 42 2 -26 2 -67 0 -90z"/>
<path d="M798 1073 c6 -2 18 -2 25 0 6 3 1 5 -13 5 -14 0 -19 -2 -12 -5z"/>
<path d="M798 1053 c6 -2 18 -2 25 0 6 3 1 5 -13 5 -14 0 -19 -2 -12 -5z"/>
<path d="M944 1009 c-3 -6 0 -17 8 -25 13 -13 16 -13 27 0 7 8 10 20 6 26 -8
13 -32 13 -41 -1z m30 -20 c-3 -5 -10 -7 -15 -3 -5 3 -7 10 -3 15 3 5 10 7 15
3 5 -3 7 -10 3 -15z"/>
<path d="M1002 940 c0 -19 2 -27 5 -17 2 9 2 25 0 35 -3 9 -5 1 -5 -18z"/>
<path d="M973 910 c0 -30 2 -43 4 -27 2 15 2 39 0 55 -2 15 -4 2 -4 -28z"/>
<path d="M1001 884 c0 -11 3 -14 6 -6 3 7 2 16 -1 19 -3 4 -6 -2 -5 -13z"/>
<path d="M744 985 c-14 -36 2 -45 86 -45 l81 0 -3 28 c-3 27 -4 27 -81 30 -62
2 -78 0 -83 -13z m154 -17 c3 -16 -5 -18 -67 -18 -65 0 -71 2 -71 20 0 19 5
21 67 18 55 -2 68 -6 71 -20z"/>
<path d="M778 963 c7 -3 16 -2 19 1 4 3 -2 6 -13 5 -11 0 -14 -3 -6 -6z"/>
<path d="M838 963 c12 -2 30 -2 40 0 9 3 -1 5 -23 4 -22 0 -30 -2 -17 -4z"/>
<path d="M757 924 c-14 -15 -6 -34 14 -34 14 0 19 5 17 17 -3 18 -20 27 -31
17z m18 -14 c3 -5 1 -10 -4 -10 -6 0 -11 5 -11 10 0 6 2 10 4 10 3 0 8 -4 11
-10z"/>
<path d="M810 910 c0 -11 7 -20 15 -20 8 0 15 9 15 20 0 11 -7 20 -15 20 -8 0
-15 -9 -15 -20z"/>
<path d="M865 920 c-8 -14 3 -30 21 -30 8 0 14 9 14 20 0 21 -24 28 -35 10z"/>
<path d="M750 865 c0 -8 9 -15 20 -15 11 0 20 7 20 15 0 8 -9 15 -20 15 -11 0
-20 -7 -20 -15z"/>
<path d="M810 865 c0 -8 7 -15 15 -15 8 0 15 7 15 15 0 8 -7 15 -15 15 -8 0
-15 -7 -15 -15z"/>
<path d="M867 873 c-13 -12 -7 -23 13 -23 11 0 20 7 20 15 0 15 -21 21 -33 8z"/>
<path d="M750 820 c0 -13 7 -20 20 -20 13 0 20 7 20 20 0 13 -7 20 -20 20 -13
0 -20 -7 -20 -20z m30 0 c0 -5 -4 -10 -10 -10 -5 0 -10 5 -10 10 0 6 5 10 10
10 6 0 10 -4 10 -10z"/>
<path d="M810 820 c0 -11 7 -20 15 -20 8 0 15 9 15 20 0 11 -7 20 -15 20 -8 0
-15 -9 -15 -20z"/>
<path d="M865 830 c-8 -14 3 -30 21 -30 8 0 14 9 14 20 0 21 -24 28 -35 10z"/>
<path d="M810 775 c0 -8 7 -15 15 -15 8 0 15 7 15 15 0 8 -7 15 -15 15 -8 0
-15 -7 -15 -15z"/>
</g>
</svg>
