<?xml version="1.0" standalone="no"?>
<!DOCTYPE svg PUBLIC "-//W3C//DTD SVG 20010904//EN"
 "http://www.w3.org/TR/2001/REC-SVG-20010904/DTD/svg10.dtd">
<svg version="1.0" xmlns="http://www.w3.org/2000/svg"
 width="450.000000pt" height="600.000000pt" viewBox="0 0 450.000000 600.000000"
 preserveAspectRatio="xMidYMid meet">
<metadata>
Created by potrace 1.10, written by Peter Selinger 2001-2011
</metadata>
<g transform="translate(0.000000,600.000000) scale(0.100000,-0.100000)"
fill="#000000" stroke="none">
<path d="M1502 4175 c-57 -25 -71 -51 -72 -131 0 -65 2 -72 29 -98 20 -20 43
-30 75 -33 66 -8 68 -28 8 -83 -28 -25 -55 -60 -61 -79 -16 -48 -15 -1605 0
-1667 8 -30 22 -52 43 -69 67 -52 66 -51 66 -123 0 -111 -59 -102 646 -102
358 0 615 4 624 10 10 6 15 31 16 87 2 68 5 80 25 93 12 8 37 31 55 49 l34 35
0 849 c0 952 5 888 -73 928 -29 15 -38 25 -35 42 2 18 12 23 53 29 72 10 105
51 105 131 0 75 -19 110 -70 131 -36 14 -117 16 -738 16 -585 -1 -702 -3 -730
-15z m1465 -67 c18 -17 23 -32 23 -69 0 -84 49 -79 -749 -79 -507 0 -707 3
-725 12 -42 19 -48 124 -8 148 11 6 284 10 726 10 l710 0 23 -22z m-152 -207
c9 -15 6 -2034 -3 -2043 -4 -4 -269 -7 -588 -6 l-579 3 -3 1005 c-1 553 0
1015 3 1028 l5 22 580 0 c345 0 581 -4 585 -9z m-1227 -976 c1 -603 -1 -862
-9 -869 -7 -8 -16 -4 -30 13 -18 22 -19 48 -19 843 0 722 2 823 16 849 38 74
39 54 42 -836z m1327 849 c20 -15 20 -27 20 -855 l0 -841 -25 -20 -25 -20 -5
868 c-3 478 -4 872 -2 877 5 10 14 8 37 -9z"/>
<path d="M1712 3848 c-9 -9 -12 -169 -12 -659 0 -581 2 -647 16 -653 28 -11
1014 -7 1035 4 18 10 19 28 19 653 0 487 -3 646 -12 655 -17 17 -1029 17
-1046 0z m108 -60 c0 -7 0 -233 0 -502 0 -476 0 -490 -21 -533 -22 -45 -39
-56 -39 -25 -1 13 0 1036 0 1065 0 13 60 8 60 -5z m765 -468 l0 -475 -350 0
-350 0 -3 465 c-1 256 0 471 3 478 3 10 79 12 352 10 l348 -3 0 -475z m133
-64 c1 -340 -1 -543 -8 -550 -6 -6 -13 -1 -20 15 -6 13 -20 40 -30 59 -18 33
-19 63 -20 521 0 267 3 489 7 493 4 4 21 6 38 4 l30 -3 3 -539z m-107 -498
c10 -13 18 -30 19 -39 0 -9 7 -22 15 -29 8 -7 15 -19 15 -28 0 -8 7 -23 16
-33 9 -10 14 -25 11 -34 -6 -13 -60 -15 -452 -15 l-445 0 0 23 c0 13 11 44 25
68 13 24 31 59 39 77 l15 32 361 0 362 0 19 -22z"/>
<path d="M2217 3593 c-4 -3 -7 -18 -7 -33 0 -17 -12 -37 -34 -57 -57 -50 -60
-110 -8 -158 15 -14 39 -25 53 -25 46 0 77 -58 47 -88 -27 -27 -75 -6 -91 41
-7 19 -15 21 -36 8 -21 -14 -5 -60 35 -97 24 -23 34 -41 34 -63 0 -56 45 -51
56 6 4 21 19 47 37 63 26 23 30 34 30 75 0 40 -4 52 -26 71 -15 13 -45 28 -67
34 -51 14 -68 42 -45 76 23 36 59 32 85 -11 12 -19 28 -35 35 -35 35 0 20 78
-21 105 -16 10 -24 25 -24 43 0 39 -32 67 -53 45z"/>
<path d="M2306 2724 c-3 -9 -4 -20 0 -25 3 -5 63 -9 135 -9 l129 0 0 25 0 25
-129 0 c-109 0 -130 -3 -135 -16z"/>
<path d="M1707 2453 c-4 -3 -7 -75 -7 -160 0 -133 2 -154 16 -160 34 -13 44
24 44 163 0 107 -3 136 -16 148 -17 17 -27 20 -37 9z"/>
<path d="M1938 2394 c-15 -8 -32 -23 -38 -34 -14 -26 -13 -332 1 -363 20 -44
44 -47 335 -47 307 0 326 3 338 61 10 49 7 315 -4 343 -19 52 -45 56 -337 56
-217 -1 -273 -4 -295 -16z m568 -48 c21 -8 18 -46 -3 -46 -221 -4 -548 1 -556
9 -12 12 -1 30 23 39 22 8 515 6 536 -2z m14 -121 c0 -13 -38 -15 -284 -15
-258 0 -309 4 -289 24 3 3 134 6 290 6 245 0 283 -2 283 -15z m2 -87 c8 -25 0
-108 -12 -123 -19 -23 -531 -22 -554 1 -16 16 -23 114 -9 127 3 4 133 7 289 7
216 0 283 -3 286 -12z"/>
<path d="M2299 2084 c-20 -24 13 -44 74 -44 53 0 87 13 87 34 0 19 -23 26 -90
26 -41 0 -61 -5 -71 -16z"/>
<path d="M1700 2000 c0 -80 2 -90 18 -90 31 0 42 22 42 86 0 78 -6 94 -36 94
-24 0 -24 -2 -24 -90z"/>
</g>
</svg>
