<?xml version="1.0" standalone="no"?>
<!DOCTYPE svg PUBLIC "-//W3C//DTD SVG 20010904//EN"
 "http://www.w3.org/TR/2001/REC-SVG-20010904/DTD/svg10.dtd">
<svg version="1.0" xmlns="http://www.w3.org/2000/svg"
 width="450.000000pt" height="600.000000pt" viewBox="0 0 450.000000 600.000000"
 preserveAspectRatio="xMidYMid meet">
<metadata>
Created by potrace 1.10, written by Peter Selinger 2001-2011
</metadata>
<g transform="translate(0.000000,600.000000) scale(0.100000,-0.100000)"
fill="#000000" stroke="none">
<path d="M1822 3827 l-32 -32 -2 -190 c-3 -185 -3 -189 -25 -195 -12 -3 -33
-15 -47 -27 -14 -12 -82 -65 -150 -118 -69 -53 -128 -100 -131 -104 -8 -14
-84 -51 -105 -51 -10 0 -21 -4 -24 -9 -3 -5 -18 -12 -33 -15 -53 -13 -113 -41
-113 -53 0 -18 46 -16 76 3 34 23 52 6 31 -27 -45 -72 -57 -190 -22 -219 22
-18 36 -4 25 26 -33 86 37 228 133 272 73 34 101 45 137 52 38 9 86 25 138 46
18 8 41 14 52 14 11 0 34 6 52 14 18 8 60 22 93 31 33 10 75 24 93 31 18 8 39
14 47 14 8 0 30 8 50 17 48 23 59 10 57 -68 -2 -55 -6 -67 -38 -105 -33 -41
-104 -84 -137 -84 -8 0 -28 -7 -43 -15 -16 -8 -38 -15 -49 -15 -21 0 -64 -25
-77 -44 -4 -6 -10 -36 -14 -66 -8 -65 -34 -128 -80 -191 -39 -54 -41 -59 -15
-59 10 0 31 18 47 43 16 23 32 44 37 45 4 2 7 10 7 18 0 9 6 25 12 37 7 12 17
45 23 72 8 40 14 51 32 53 17 3 22 -2 25 -25 3 -31 3 -31 67 -8 24 9 77 17
118 19 l73 3 8 -31 c11 -41 31 -45 38 -7 5 23 12 31 28 31 20 1 633 1 649 0
18 0 4 -39 -25 -66 -53 -49 -98 -67 -148 -61 -43 5 -65 10 -195 45 -68 19
-196 22 -216 5 -8 -6 -30 -16 -49 -21 -19 -6 -60 -20 -90 -32 -30 -12 -64 -24
-75 -27 -11 -3 -34 -11 -52 -19 -17 -8 -38 -14 -46 -14 -8 0 -25 -9 -38 -19
-19 -15 -21 -22 -12 -32 10 -10 15 -10 27 0 9 7 30 17 48 21 18 5 58 18 88 30
89 36 94 34 100 -30 4 -42 9 -56 23 -58 14 -3 17 4 17 36 0 38 2 40 48 57 70
26 122 29 192 11 34 -9 83 -16 108 -16 26 0 79 -9 117 -19 64 -16 70 -20 67
-42 -4 -37 -57 -84 -117 -104 -51 -18 -57 -18 -132 -2 -90 19 -164 22 -180 6
-6 -6 -26 -14 -44 -19 -46 -11 -98 -30 -131 -46 -14 -8 -33 -14 -42 -14 -9 0
-24 -4 -34 -10 -21 -12 -98 -40 -132 -47 -14 -3 -30 -10 -37 -15 -7 -6 -27
-14 -45 -18 -18 -5 -58 -18 -88 -30 -30 -12 -64 -24 -75 -27 -11 -2 -29 -9
-40 -14 -33 -14 -108 -40 -135 -46 -14 -3 -30 -10 -37 -15 -7 -6 -27 -14 -45
-18 -18 -5 -58 -18 -88 -30 -30 -12 -64 -24 -75 -27 -44 -11 -85 -35 -85 -48
0 -17 23 -19 48 -5 21 12 98 40 132 47 14 3 30 10 37 15 7 6 27 14 45 18 18 5
58 18 88 30 30 12 64 24 75 27 11 2 29 9 40 14 33 14 108 40 135 46 14 3 30
10 37 15 7 6 27 14 45 18 18 5 58 18 88 30 30 12 64 24 75 27 11 2 29 9 40 14
33 14 108 40 135 46 14 3 34 12 45 19 11 8 27 14 36 14 9 0 30 7 48 16 29 15
38 15 103 0 180 -41 302 5 350 132 20 52 17 62 -20 62 -15 0 -34 4 -41 9 -12
8 -8 11 15 17 56 14 154 90 154 120 0 6 9 19 19 28 17 15 44 18 198 19 195 2
223 9 243 63 14 37 13 799 -1 827 -6 12 -21 30 -33 39 -19 16 -73 18 -732 18
l-710 0 -32 -33z m1433 -3 c45 -12 46 -24 45 -436 0 -237 -4 -398 -10 -409
-10 -18 -40 -19 -703 -21 -380 -2 -702 0 -715 4 -29 10 -21 24 15 31 30 5 79
21 128 42 17 7 44 18 60 24 18 7 36 24 45 44 l15 32 9 -38 c5 -20 14 -36 20
-34 16 5 19 107 5 133 -9 17 -9 30 0 55 6 17 11 80 11 139 0 89 -3 109 -16
114 -28 11 -212 7 -219 -5 -4 -6 -8 -51 -9 -100 -1 -66 -5 -92 -15 -99 -18
-10 -81 -23 -88 -17 -2 3 -4 117 -4 253 l1 249 25 23 26 22 677 0 c372 0 686
-3 697 -6z m-1255 -369 c0 -8 -7 -15 -15 -15 -8 0 -15 7 -15 15 0 8 7 15 15
15 8 0 15 -7 15 -15z m65 -46 c0 -41 -4 -54 -15 -54 -16 0 -27 73 -16 102 13
33 31 5 31 -48z m78 55 c11 -11 -3 -24 -18 -18 -8 4 -12 10 -9 15 6 11 18 12
27 3z m-143 -75 c0 -5 -7 -9 -15 -9 -15 0 -20 12 -9 23 8 8 24 -1 24 -14z
m140 -4 c0 -8 -4 -15 -10 -15 -5 0 -10 7 -10 15 0 8 5 15 10 15 6 0 10 -7 10
-15z m-352 -67 c3 -54 2 -56 -32 -72 -19 -9 -42 -16 -53 -16 -10 -1 -29 -7
-43 -15 -14 -8 -37 -14 -52 -15 -15 0 -30 -4 -33 -10 -3 -5 -16 -10 -27 -10
-20 0 -20 1 3 23 13 13 44 38 69 57 50 39 70 55 115 94 17 14 35 24 40 22 6
-1 11 -27 13 -58z m636 -514 c38 -15 9 -24 -74 -24 -83 0 -101 5 -83 23 8 9
136 9 157 1z m-179 -34 c7 -11 -39 -25 -55 -15 -5 3 -8 11 -5 16 8 12 52 12
60 -1z m298 -7 c-13 -2 -35 -2 -50 0 -16 2 -5 4 22 4 28 0 40 -2 28 -4z"/>
<path d="M1941 3738 c-5 -13 -6 -38 -4 -55 l5 -33 173 0 c95 0 180 3 189 6 22
9 21 73 -1 90 -13 10 -62 13 -186 14 -165 0 -168 0 -176 -22z m324 -38 c0 -12
-23 -15 -134 -18 -147 -3 -164 0 -155 23 9 22 289 18 289 -5z"/>
<path d="M3072 3747 c-49 -18 -81 -63 -82 -115 0 -37 6 -50 33 -77 42 -42 77
-51 127 -35 53 18 80 57 80 119 0 44 -4 52 -35 80 -20 17 -42 31 -50 31 -7 0
-19 2 -27 4 -7 3 -28 -1 -46 -7z m106 -60 c54 -50 0 -146 -77 -133 -37 6 -81
47 -81 75 0 26 38 75 62 82 32 9 69 0 96 -24z"/>
<path d="M1945 3609 c-4 -6 -5 -13 -2 -16 7 -6 358 -5 364 1 3 3 2 9 -2 15 -9
15 -351 15 -360 0z"/>
<path d="M3160 3348 c0 -7 9 -26 20 -43 26 -40 26 -104 -1 -150 -21 -35 -17
-63 6 -47 48 34 62 157 24 218 -20 34 -49 46 -49 22z"/>
<path d="M3107 3314 c-3 -4 1 -24 10 -46 13 -32 14 -45 5 -59 -15 -23 -16 -69
-2 -69 11 0 50 73 50 94 0 8 -8 31 -17 50 -17 34 -32 44 -46 30z"/>
<path d="M3057 3263 c-4 -3 -7 -19 -7 -35 0 -23 4 -29 18 -26 21 4 28 41 9 56
-8 7 -17 9 -20 5z"/>
<path d="M2366 3193 c-3 -3 -6 -35 -6 -70 0 -49 3 -63 15 -63 12 0 15 14 15
64 0 60 -8 84 -24 69z"/>
<path d="M2576 3193 c-3 -3 -6 -35 -6 -70 0 -49 3 -63 15 -63 12 0 15 14 15
64 0 60 -8 84 -24 69z"/>
<path d="M2786 3193 c-3 -3 -6 -35 -6 -70 0 -49 3 -63 15 -63 12 0 15 14 15
64 0 60 -8 84 -24 69z"/>
<path d="M2427 3183 c-12 -11 -8 -111 4 -119 16 -10 29 15 29 58 0 55 -14 81
-33 61z"/>
<path d="M2508 3176 c-22 -21 -23 -79 -3 -96 22 -19 26 -9 23 56 -3 55 -4 57
-20 40z"/>
<path d="M2710 3171 c-16 -31 -12 -76 9 -95 17 -15 19 -15 25 -1 3 9 6 32 6
50 0 61 -19 84 -40 46z"/>
<path d="M2846 3174 c-9 -23 -7 -87 3 -103 7 -11 11 -10 20 7 12 23 14 55 5
90 -7 26 -19 29 -28 6z"/>
<path d="M2926 3168 c-10 -38 -7 -73 8 -94 14 -18 15 -18 21 7 9 36 2 102 -11
106 -6 2 -14 -6 -18 -19z"/>
<path d="M2289 3173 c-7 -36 -6 -80 3 -90 20 -25 28 -13 28 42 0 42 -3 55 -15
55 -8 0 -16 -3 -16 -7z"/>
</g>
</svg>
