<?xml version="1.0" standalone="no"?>
<!DOCTYPE svg PUBLIC "-//W3C//DTD SVG 20010904//EN"
 "http://www.w3.org/TR/2001/REC-SVG-20010904/DTD/svg10.dtd">
<svg version="1.0" xmlns="http://www.w3.org/2000/svg"
 width="450.000000pt" height="600.000000pt" viewBox="0 0 450.000000 600.000000"
 preserveAspectRatio="xMidYMid meet">
<metadata>
Created by potrace 1.10, written by Peter Selinger 2001-2011
</metadata>
<g transform="translate(0.000000,600.000000) scale(0.100000,-0.100000)"
fill="#000000" stroke="none">
<path d="M1408 4645 c-53 -14 -146 -65 -172 -94 -27 -29 -17 -55 22 -59 17 -2
32 1 32 6 0 6 26 27 58 49 l57 38 105 0 c105 0 105 0 163 -39 31 -21 57 -41
57 -46 0 -13 43 -20 57 -8 23 19 14 45 -27 78 -98 80 -231 109 -352 75z"/>
<path d="M1434 4525 c-23 -7 -60 -25 -83 -40 -32 -22 -41 -34 -41 -56 0 -38
21 -38 70 1 46 37 81 50 129 50 53 0 101 -18 136 -51 37 -34 51 -36 65 -9 14
26 8 35 -42 66 -80 51 -157 63 -234 39z"/>
<path d="M1433 4412 c-35 -19 -59 -54 -49 -71 11 -17 41 -13 69 9 33 26 80 25
116 -1 34 -25 65 -22 69 8 2 16 -7 28 -41 47 -51 31 -115 33 -164 8z"/>
<path d="M1470 4285 c-12 -22 -11 -27 6 -40 20 -16 64 -11 75 7 14 22 -7 53
-38 56 -23 2 -32 -3 -43 -23z"/>
<path d="M1689 3989 l-50 -51 2 -232 1 -231 -198 -3 c-109 -1 -203 -7 -208
-12 -5 -5 -11 -130 -13 -279 -3 -270 -3 -270 19 -282 16 -8 75 -10 210 -7
l188 6 0 -418 0 -417 30 -42 c58 -79 45 -77 630 -77 544 1 531 0 579 46 53 51
51 23 51 652 l0 583 53 19 c74 26 153 81 192 135 19 25 39 51 45 58 5 7 10 18
10 26 0 7 7 22 15 33 11 14 14 48 15 132 0 107 -2 116 -32 179 -37 75 -115
158 -174 186 -21 10 -52 25 -67 33 -24 12 -133 14 -638 14 l-610 0 -50 -51z
m905 -17 c2 -4 -20 -34 -50 -66 -53 -56 -80 -102 -93 -161 l-7 -30 -357 0
-358 0 3 104 c4 152 -31 140 431 145 208 2 381 6 384 10 9 9 41 7 47 -2z m405
-47 c66 -34 102 -67 142 -135 31 -52 32 -60 32 -155 0 -95 -1 -103 -32 -155
-56 -93 -127 -145 -236 -169 -55 -13 -152 3 -210 33 -72 37 -137 118 -165 206
-25 79 -25 101 1 175 42 120 131 204 239 226 66 14 174 1 229 -26z m-571 -299
c5 -3 12 -33 15 -66 10 -96 73 -194 171 -266 52 -38 98 -55 171 -63 l60 -6 3
-432 2 -433 -559 0 c-308 0 -561 3 -563 8 -2 4 -2 124 0 268 l3 260 248 -4
c177 -3 254 -1 269 7 22 12 22 15 22 279 0 195 -3 271 -12 280 -9 9 -83 12
-269 12 -142 0 -259 3 -261 8 -2 4 -2 41 0 82 l3 75 345 -2 c189 -1 348 -4
352 -7z m-243 -257 c4 -11 4 -31 1 -45 l-6 -24 -435 0 -435 0 0 38 c0 21 3 42
7 45 3 4 199 7 434 7 424 0 428 0 434 -21z m-7 -266 l-3 -128 -430 0 -430 0
-3 128 -3 127 436 0 436 0 -3 -127z m667 -931 c0 -155 54 -141 -559 -142
l-510 0 -23 22 c-21 20 -23 30 -23 118 0 53 2 99 4 101 2 2 253 3 558 3 l553
-2 0 -100z"/>
<path d="M2113 3870 c-28 -22 -29 -32 -4 -54 15 -14 38 -16 147 -14 l129 3 3
31 c4 42 -25 52 -153 53 -83 0 -104 -4 -122 -19z"/>
<path d="M2901 3699 c-50 -51 -91 -96 -91 -100 0 -19 -28 -7 -60 26 -27 28
-41 35 -65 33 -25 -3 -30 -8 -33 -33 -3 -26 6 -38 63 -88 37 -31 71 -57 77
-57 6 0 58 46 116 103 58 56 113 110 124 120 34 32 15 87 -30 87 -6 0 -51 -41
-101 -91z"/>
<path d="M1398 3114 c-11 -23 -10 -28 9 -44 19 -15 42 -17 148 -16 111 1 128
3 140 19 9 12 11 27 6 40 -8 21 -15 22 -150 25 l-141 3 -12 -27z"/>
<path d="M1797 3133 c-14 -13 -7 -61 11 -69 9 -4 72 -9 139 -10 107 -1 124 1
139 17 11 12 14 27 10 44 l-6 25 -144 0 c-78 0 -146 -3 -149 -7z"/>
<path d="M2161 2188 c-24 -8 -29 -49 -8 -65 12 -10 262 -12 270 -3 15 17 16
49 1 61 -19 15 -225 21 -263 7z"/>
</g>
</svg>
